<svg xmlns="http://www.w3.org/2000/svg" width="36" height="33.75" viewBox="0 0 36 33.75">
  <path id="Icon_awesome-cat" data-name="Icon awesome-cat" d="M20.432,13.5A13.506,13.506,0,0,0,9,19.543V13.5A6.757,6.757,0,0,0,2.25,6.75a2.25,2.25,0,0,0,0,4.5A2.253,2.253,0,0,1,4.5,13.5v18A4.5,4.5,0,0,0,9,36H21.375A1.125,1.125,0,0,0,22.5,34.875V33.75a2.25,2.25,0,0,0-2.25-2.25H18l9-6.75V34.875A1.125,1.125,0,0,0,28.125,36h2.25A1.125,1.125,0,0,0,31.5,34.875V20.381a8.91,8.91,0,0,1-2.25.319,9.015,9.015,0,0,1-8.818-7.2ZM31.5,6.75H27l-4.5-4.5V11.7a6.75,6.75,0,1,0,13.5,0V2.25Zm-5.062,5.625a1.125,1.125,0,1,1,1.125-1.125A1.125,1.125,0,0,1,26.438,12.375Zm5.625,0a1.125,1.125,0,1,1,1.125-1.125A1.125,1.125,0,0,1,32.063,12.375Z" transform="translate(0 -2.25)"/>
</svg>
