<svg xmlns="http://www.w3.org/2000/svg" width="36" height="33.75" viewBox="0 0 36 33.75">
  <path id="Icon_awesome-dog" data-name="Icon awesome-dog" d="M34.875,6.75h-4.5l-.5-1.006A2.25,2.25,0,0,0,27.859,4.5h-3.77L22.171,2.582a1.125,1.125,0,0,0-1.921.8V13.913l9,3.214v-2.5H31.5a4.5,4.5,0,0,0,4.5-4.5V7.875A1.125,1.125,0,0,0,34.875,6.75ZM27,10.125A1.125,1.125,0,1,1,28.125,9,1.125,1.125,0,0,1,27,10.125ZM6.75,15.75A2.253,2.253,0,0,1,4.5,13.5a2.25,2.25,0,0,0-4.5,0,6.738,6.738,0,0,0,4.5,6.335v15.04A1.125,1.125,0,0,0,5.625,36h4.5a1.125,1.125,0,0,0,1.125-1.125V27H22.5v7.875A1.125,1.125,0,0,0,23.625,36h4.5a1.125,1.125,0,0,0,1.125-1.125V19.515L18.707,15.75Z" transform="translate(0 -2.25)"/>
</svg>
